<!DOCTYPE svg PUBLIC "-//W3C//DTD SVG 1.1//EN" "http://www.w3.org/Graphics/SVG/1.1/DTD/svg11.dtd">
<!-- Uploaded to: SVG Repo, www.svgrepo.com, Transformed by: SVG Repo Mixer Tools -->
<svg fill="#ff0000" height="800px" width="800px" version="1.1" id="Layer_1" xmlns="http://www.w3.org/2000/svg" xmlns:xlink="http://www.w3.org/1999/xlink" viewBox="0 0 512.001 512.001" xml:space="preserve" stroke="#ff0000">
<g id="SVGRepo_bgCarrier" stroke-width="0"/>
<g id="SVGRepo_tracerCarrier" stroke-linecap="round" stroke-linejoin="round"/>
<g id="SVGRepo_iconCarrier"> <g> <g> <path d="M303.062,208.94c-12.57-12.571-29.284-19.493-47.06-19.493c-17.777,0-34.49,6.923-47.06,19.493 c-12.571,12.571-19.494,29.285-19.494,47.061c0,17.777,6.923,34.49,19.494,47.06c12.57,12.571,29.284,19.493,47.06,19.493 c17.777,0,34.49-6.923,47.06-19.493c12.571-12.571,19.494-29.285,19.494-47.061S315.633,221.51,303.062,208.94z M279.446,279.445 c-6.262,6.262-14.588,9.711-23.445,9.711c-8.857,0-17.183-3.449-23.445-9.712c-6.262-6.262-9.712-14.588-9.712-23.444 c0-8.856,3.45-17.182,9.712-23.444s14.588-9.711,23.445-9.711c8.857,0,17.183,3.449,23.445,9.712 c6.262,6.262,9.712,14.588,9.712,23.444C289.158,264.857,285.708,273.182,279.446,279.445z"/> </g> </g> <g> <g> <circle cx="255.997" cy="255.997" r="15.049"/> </g> </g> <g> <g> <path d="M378.003,54.424c-15.758,6.112-28.195,17.996-35.017,33.463l30.558,13.477c3.222-7.304,9.094-12.916,16.537-15.802 c7.446-2.887,15.566-2.701,22.867,0.52l13.478-30.558C410.958,48.702,393.762,48.311,378.003,54.424z"/> </g> </g> <g> <g> <path d="M459.573,89.745l-30.971,12.498c2.987,7.402,2.912,15.526-0.209,22.872c-3.124,7.345-8.921,13.038-16.323,16.024 l12.496,30.971c15.676-6.325,27.95-18.376,34.563-33.932C465.741,122.621,465.899,105.421,459.573,89.745z"/> </g> </g> <g> <g> <path d="M400.887,287.409c-9.209,0-18.247,1.114-26.96,3.275L363.768,256l10.159-34.684c8.714,2.161,17.751,3.275,26.96,3.275 c29.693,0,57.61-11.564,78.606-32.56c43.344-43.344,43.344-113.869,0-157.213c-20.996-20.996-48.914-32.56-78.606-32.56 c-29.694,0-57.611,11.564-78.606,32.56c-20.996,20.996-32.56,48.914-32.56,78.607c0,8.227,0.892,16.317,2.622,24.162 l-36.342,10.644l-36.342-10.644c1.73-7.845,2.622-15.935,2.622-24.162c0-29.693-11.564-57.611-32.56-78.607 c-20.995-20.996-48.913-32.56-78.606-32.56c-29.693,0-57.61,11.564-78.606,32.56c-43.345,43.344-43.345,113.87-0.002,157.214 c20.996,20.996,48.914,32.56,78.606,32.56c9.209,0,18.247-1.114,26.96-3.275l10.159,34.684l-10.159,34.684 c-8.714-2.161-17.751-3.275-26.96-3.275c-29.693,0-57.61,11.564-78.606,32.56c-43.344,43.344-43.344,113.869,0,157.213 c20.996,20.996,48.914,32.56,78.606,32.56c29.694,0,57.611-11.564,78.606-32.56c20.996-20.996,32.56-48.914,32.56-78.607 c0-8.227-0.892-16.317-2.622-24.164l36.342-10.644l36.342,10.644c-1.73,7.845-2.622,15.935-2.622,24.164 c0,29.693,11.564,57.611,32.56,78.607c20.995,20.996,48.913,32.56,78.606,32.56c29.693,0,57.609-11.564,78.606-32.56 c43.344-43.344,43.344-113.87,0-157.214C458.497,298.972,430.58,287.409,400.887,287.409z M345.896,58.434 c14.689-14.689,34.218-22.778,54.991-22.778s40.302,8.089,54.991,22.778c30.321,30.322,30.321,79.66,0,109.982 c-14.689,14.688-34.218,22.778-54.991,22.778c-5.984,0-11.86-0.692-17.552-1.999l25.072-85.599l-83.889,24.571 c-0.918-4.81-1.399-9.738-1.399-14.741C323.119,92.653,331.208,73.123,345.896,58.434z M345.897,343.584 c2.201-2.201,4.522-4.234,6.927-6.133l6.367,21.739l-21.288-6.235C340.3,349.659,342.96,346.521,345.897,343.584z M345.896,168.416c-2.937-2.937-5.597-6.075-7.994-9.37l21.288-6.235l-6.367,21.738 C350.418,172.649,348.097,170.617,345.896,168.416z M103.595,103.594l25.072,85.599c-5.693,1.307-11.568,1.999-17.552,1.999 c-20.773,0-40.302-8.089-54.991-22.778c-30.321-30.322-30.321-79.659,0-109.982c14.688-14.688,34.217-22.778,54.991-22.778 c20.774,0,40.302,8.089,54.991,22.778c14.689,14.689,22.778,34.219,22.778,54.991c0,5.003-0.481,9.93-1.398,14.74L103.595,103.594 z M159.178,174.549l-6.367-21.738l21.288,6.235c-2.397,3.295-5.058,6.434-7.994,9.37 C163.905,170.617,161.584,172.649,159.178,174.549z M174.099,352.955l-21.288,6.235l6.367-21.738 c2.406,1.898,4.727,3.931,6.927,6.132C169.042,346.521,171.703,349.659,174.099,352.955z M166.105,453.566 c-14.688,14.688-34.217,22.777-54.991,22.777c-20.774,0-40.302-8.089-54.991-22.777c-30.321-30.322-30.321-79.66,0-109.982 c14.688-14.688,34.217-22.778,54.991-22.778c5.984,0,11.86,0.693,17.552,1.999l-25.072,85.599l83.889-24.571 c0.918,4.81,1.399,9.739,1.399,14.741C188.883,419.347,180.794,438.877,166.105,453.566z M304.468,343.161l-48.467-14.195 l-48.468,14.195c-4.832-8.375-10.791-16.172-17.812-23.193c-6.304-6.304-13.237-11.752-20.649-16.297L183.033,256l-13.963-47.671 c7.413-4.545,14.344-9.993,20.649-16.297c7.02-7.02,12.981-14.819,17.812-23.194l48.467,14.195l48.468-14.196 c4.832,8.375,10.791,16.172,17.812,23.194c6.304,6.304,13.237,11.752,20.649,16.297l-13.963,47.671l13.963,47.671 c-7.413,4.546-14.344,9.993-20.649,16.297C315.26,326.988,309.299,334.786,304.468,343.161z M455.877,453.566 c-14.689,14.688-34.218,22.777-54.991,22.777s-40.302-8.089-54.991-22.777c-14.688-14.689-22.777-34.219-22.777-54.991 c0-5.003,0.481-9.93,1.398-14.74l83.889,24.571l-25.072-85.599c5.692-1.307,11.567-1.999,17.552-1.999 c20.773,0,40.302,8.089,54.991,22.778C486.198,373.907,486.198,423.243,455.877,453.566z"/> </g> </g> <g> <g> <path d="M412.947,425.919c-7.303,3.222-15.424,3.407-22.867,0.52c-7.442-2.887-13.315-8.499-16.537-15.802l-30.558,13.477 c6.822,15.467,19.258,27.35,35.017,33.463c7.427,2.88,15.171,4.316,22.903,4.316c8.678,0,17.34-1.809,25.52-5.417L412.947,425.919 z"/> </g> </g> <g> <g> <path d="M459.127,373.822c-6.611-15.557-18.886-27.608-34.562-33.932l-12.496,30.971c7.402,2.987,13.199,8.678,16.322,16.024 c3.123,7.346,3.196,15.47,0.209,22.872l30.971,12.498C465.897,406.579,465.739,389.379,459.127,373.822z"/> </g> </g> <g> <g> <path d="M133.999,54.423c-15.759-6.112-32.955-5.722-48.423,1.1L99.055,86.08c7.304-3.22,15.424-3.403,22.867-0.519 c7.442,2.887,13.315,8.499,16.537,15.802l30.558-13.477C162.194,72.419,149.758,60.536,133.999,54.423z"/> </g> </g> <g> <g> <path d="M83.611,125.115c-3.123-7.346-3.196-15.47-0.209-22.872L52.43,89.745c-6.326,15.676-6.168,32.876,0.444,48.433 c6.612,15.557,18.887,27.608,34.563,33.932l12.496-30.971C92.529,138.152,86.732,132.46,83.611,125.115z"/> </g> </g> <g> <g> <path d="M138.457,410.637c-3.222,7.304-9.094,12.916-16.537,15.802c-7.444,2.888-15.564,2.702-22.867-0.52l-13.478,30.557 c8.18,3.608,16.84,5.417,25.52,5.417c7.732,0,15.478-1.437,22.903-4.316c15.758-6.112,28.195-17.996,35.017-33.463 L138.457,410.637z"/> </g> </g> <g> <g> <path d="M87.436,339.889c-15.676,6.324-27.95,18.376-34.563,33.932c-6.612,15.557-6.77,32.757-0.444,48.433L83.4,409.757 c-2.987-7.402-2.912-15.526,0.209-22.872c3.123-7.345,8.919-13.036,16.323-16.024L87.436,339.889z"/> </g> </g> </g>
</svg>